<?xml version="1.0" encoding="UTF-8" standalone="no"?>
<svg
   xmlns:dc="http://purl.org/dc/elements/1.1/"
   xmlns:cc="http://creativecommons.org/ns#"
   xmlns:rdf="http://www.w3.org/1999/02/22-rdf-syntax-ns#"
   xmlns:svg="http://www.w3.org/2000/svg"
   xmlns="http://www.w3.org/2000/svg"
   xmlns:sodipodi="http://sodipodi.sourceforge.net/DTD/sodipodi-0.dtd"
   xmlns:inkscape="http://www.inkscape.org/namespaces/inkscape"
   width="271.80945"
   height="146.0394"
   viewBox="0 0 71.916248 38.639592"
   version="1.1"
   id="svg8"
   inkscape:version="1.0.1 (3bc2e813f5, 2020-09-07)"
   sodipodi:docname="tampon.svg"
   inkscape:export-filename="/home/billerot/Carbone/Foire/2021/atelier/tampon.png"
   inkscape:export-xdpi="96"
   inkscape:export-ydpi="96">
  <title
     id="title1057">Tampon Foirexpo Saint-Maixent L'École</title>
  <defs
     id="defs2" />
  <sodipodi:namedview
     id="base"
     pagecolor="#ffffff"
     bordercolor="#666666"
     borderopacity="1.0"
     inkscape:pageopacity="0.0"
     inkscape:pageshadow="2"
     inkscape:zoom="2.4766087"
     inkscape:cx="164.16103"
     inkscape:cy="73.019699"
     inkscape:document-units="px"
     inkscape:current-layer="layer1"
     inkscape:document-rotation="0"
     showgrid="false"
     units="px"
     inkscape:window-width="1628"
     inkscape:window-height="944"
     inkscape:window-x="11"
     inkscape:window-y="48"
     inkscape:window-maximized="0"
     fit-margin-top="0"
     fit-margin-left="0"
     fit-margin-right="0"
     fit-margin-bottom="0" />
  <metadata
     id="metadata5">
    <rdf:RDF>
      <cc:Work
         rdf:about="">
        <dc:format>image/svg+xml</dc:format>
        <dc:type
           rdf:resource="http://purl.org/dc/dcmitype/StillImage" />
        <dc:title>Tampon Foirexpo Saint-Maixent L'École</dc:title>
        <dc:creator>
          <cc:Agent>
            <dc:title>philippe.billerot@gmail.com</dc:title>
          </cc:Agent>
        </dc:creator>
      </cc:Work>
    </rdf:RDF>
  </metadata>
  <g
     inkscape:label="Calque 1"
     inkscape:groupmode="layer"
     id="layer1"
     transform="translate(-5.2517318,-1.8303637)">
    <g
       aria-label="FOIREXPO"
       id="text12"
       style="font-size:11.2889px;line-height:1.25;font-family:Carlito;-inkscape-font-specification:Carlito;word-spacing:0px;fill:#f57900;stroke-width:0.264583">
      <path
         d="m 22.159107,7.1445725 v 1.1520411 h -2.849786 v 2.0725714 h 2.386765 v 1.152041 h -2.386765 v 2.943493 H 17.854112 V 7.1445725 Z"
         style="font-style:normal;font-variant:normal;font-weight:bold;font-stretch:normal;font-size:11.2889px;font-family:Carlito;-inkscape-font-specification:'Carlito Bold';fill:#f57900;stroke-width:0.264583"
         id="path1414" />
      <path
         d="m 29.727301,10.799133 q 0,0.804776 -0.25356,1.493795 -0.253559,0.683508 -0.722092,1.185114 -0.463022,0.501607 -1.118969,0.782727 -0.655946,0.28112 -1.455209,0.28112 -0.799263,0 -1.45521,-0.28112 -0.655947,-0.28112 -1.124481,-0.782727 -0.468533,-0.501606 -0.727604,-1.185114 -0.25356,-0.689019 -0.25356,-1.493795 0,-0.7992625 0.25356,-1.4827701 0.259071,-0.6890198 0.727604,-1.1851141 0.468534,-0.5016064 1.124481,-0.7827265 0.655947,-0.2866322 1.45521,-0.2866322 0.799263,0 1.455209,0.2866322 0.655947,0.2811201 1.118969,0.7827265 0.468533,0.5016064 0.722092,1.1851141 0.25356,0.6835076 0.25356,1.4827701 z m -1.477259,0 q 0,-0.584288 -0.143316,-1.0473096 Q 27.96341,9.2888021 27.693314,8.9635847 27.428731,8.6383674 27.042879,8.4674905 26.662541,8.2911014 26.177471,8.2911014 q -0.48507,0 -0.870921,0.1763891 -0.385852,0.1708769 -0.655947,0.4960942 -0.264584,0.3252174 -0.4079,0.7882387 -0.143316,0.4630216 -0.143316,1.0473096 0,0.589801 0.143316,1.058335 0.143316,0.463021 0.4079,0.788239 0.270095,0.319705 0.655947,0.490582 0.385851,0.170877 0.870921,0.170877 0.48507,0 0.865408,-0.170877 0.385852,-0.170877 0.650435,-0.490582 0.270096,-0.325218 0.413412,-0.788239 0.143316,-0.468534 0.143316,-1.058335 z"
         style="font-style:normal;font-variant:normal;font-weight:bold;font-stretch:normal;font-size:11.2889px;font-family:Carlito;-inkscape-font-specification:'Carlito Bold';fill:#f57900;stroke-width:0.264583"
         id="path1416" />
      <path
         d="m 32.218796,14.464719 h -1.45521 V 7.1445725 h 1.45521 z"
         style="font-style:normal;font-variant:normal;font-weight:bold;font-stretch:normal;font-size:11.2889px;font-family:Carlito;-inkscape-font-specification:'Carlito Bold';fill:#f57900;stroke-width:0.264583"
         id="path1418" />
      <path
         d="m 35.101655,11.648006 v 2.816713 h -1.45521 V 7.1445725 h 2.204864 q 0.733117,0 1.256772,0.1598526 0.523655,0.1543404 0.854384,0.4354605 0.336242,0.2811201 0.490583,0.6724833 0.15434,0.3913633 0.15434,0.8598967 0,0.3582903 -0.09922,0.6835077 -0.09922,0.3197047 -0.292144,0.5898007 -0.187414,0.264584 -0.463022,0.474046 -0.275607,0.20395 -0.633898,0.330729 0.137804,0.07717 0.259072,0.187414 0.121267,0.104731 0.225998,0.259071 l 1.637111,2.667885 h -1.306381 q -0.347266,0 -0.53468,-0.292145 l -1.333942,-2.282033 q -0.08268,-0.132292 -0.187413,-0.187414 -0.09922,-0.05512 -0.286633,-0.05512 z m 0,-1.030774 h 0.73863 q 0.352778,0 0.606337,-0.09371 0.259071,-0.09371 0.424436,-0.259072 0.165365,-0.165365 0.242535,-0.3913631 0.08268,-0.2315107 0.08268,-0.5016064 0,-0.5346794 -0.330729,-0.8213116 -0.33073,-0.2921444 -1.014237,-0.2921444 h -0.749654 z"
         style="font-style:normal;font-variant:normal;font-weight:bold;font-stretch:normal;font-size:11.2889px;font-family:Carlito;-inkscape-font-specification:'Carlito Bold';fill:#f57900;stroke-width:0.264583"
         id="path1420" />
      <path
         d="m 44.466813,7.1445725 v 1.1520411 h -3.009638 v 1.9347674 h 2.342667 v 1.107944 h -2.342667 v 1.973353 h 3.01515 l -0.0055,1.152041 H 40.001965 V 7.1445725 Z"
         style="font-style:normal;font-variant:normal;font-weight:bold;font-stretch:normal;font-size:11.2889px;font-family:Carlito;-inkscape-font-specification:'Carlito Bold';fill:#f57900;stroke-width:0.264583"
         id="path1422" />
      <path
         d="M 46.985868,10.699915 44.973931,7.1445725 h 1.455209 q 0.143317,0 0.20395,0.038585 0.06615,0.033073 0.121268,0.1212675 l 1.322918,2.541105 0.08819,-0.1598526 1.157554,-2.3536916 q 0.06063,-0.093707 0.126779,-0.137804 0.06615,-0.049609 0.159853,-0.049609 h 1.383552 l -2.033987,3.4891965 2.078084,3.83095 h -1.438674 q -0.148828,0 -0.237022,-0.07166 -0.08268,-0.07717 -0.143316,-0.170877 L 47.889862,11.58186 q -0.01102,0.02756 -0.02756,0.05512 -0.01654,0.02205 -0.02756,0.04961 l -1.234724,2.530081 q -0.06063,0.09371 -0.137804,0.170877 -0.07717,0.07717 -0.203949,0.07717 H 44.89676 Z"
         style="font-style:normal;font-variant:normal;font-weight:bold;font-stretch:normal;font-size:11.2889px;font-family:Carlito;-inkscape-font-specification:'Carlito Bold';fill:#f57900;stroke-width:0.264583"
         id="path1424" />
      <path
         d="m 53.159487,11.923614 v 2.541105 H 51.70979 V 7.1445725 h 2.353691 q 0.711069,0 1.2237,0.176389 0.51263,0.1763891 0.848872,0.4905821 0.336242,0.3086809 0.496094,0.7386293 Q 56.792,8.9801212 56.792,9.492752 q 0,0.540191 -0.170877,0.986676 -0.165365,0.446485 -0.507119,0.76619 -0.336241,0.319706 -0.848872,0.501607 -0.512631,0.176389 -1.201651,0.176389 z m 0,-1.124481 h 0.903994 q 0.661459,0 0.97014,-0.347265 0.308681,-0.352779 0.308681,-0.959116 0,-0.5677524 -0.314193,-0.8984819 -0.314193,-0.3362416 -0.964628,-0.3362416 h -0.903994 z"
         style="font-style:normal;font-variant:normal;font-weight:bold;font-stretch:normal;font-size:11.2889px;font-family:Carlito;-inkscape-font-specification:'Carlito Bold';fill:#f57900;stroke-width:0.264583"
         id="path1426" />
      <path
         d="m 64.459411,10.799133 q 0,0.804776 -0.25356,1.493795 -0.253559,0.683508 -0.722092,1.185114 -0.463022,0.501607 -1.118969,0.782727 -0.655946,0.28112 -1.455209,0.28112 -0.799263,0 -1.45521,-0.28112 -0.655947,-0.28112 -1.124481,-0.782727 -0.468533,-0.501606 -0.727604,-1.185114 -0.25356,-0.689019 -0.25356,-1.493795 0,-0.7992625 0.25356,-1.4827701 0.259071,-0.6890198 0.727604,-1.1851141 0.468534,-0.5016064 1.124481,-0.7827265 0.655947,-0.2866322 1.45521,-0.2866322 0.799263,0 1.455209,0.2866322 0.655947,0.2811201 1.118969,0.7827265 0.468533,0.5016064 0.722092,1.1851141 0.25356,0.6835076 0.25356,1.4827701 z m -1.477259,0 q 0,-0.584288 -0.143316,-1.0473096 Q 62.69552,9.2888021 62.425424,8.9635847 62.160841,8.6383674 61.774989,8.4674905 61.394651,8.2911014 60.909581,8.2911014 q -0.48507,0 -0.870921,0.1763891 -0.385852,0.1708769 -0.655947,0.4960942 -0.264584,0.3252174 -0.4079,0.7882387 -0.143316,0.4630216 -0.143316,1.0473096 0,0.589801 0.143316,1.058335 0.143316,0.463021 0.4079,0.788239 0.270095,0.319705 0.655947,0.490582 0.385851,0.170877 0.870921,0.170877 0.48507,0 0.865408,-0.170877 0.385852,-0.170877 0.650435,-0.490582 0.270096,-0.325218 0.413412,-0.788239 0.143316,-0.468534 0.143316,-1.058335 z"
         style="font-style:normal;font-variant:normal;font-weight:bold;font-stretch:normal;font-size:11.2889px;font-family:Carlito;-inkscape-font-specification:'Carlito Bold';fill:#f57900;stroke-width:0.264583"
         id="path1428" />
    </g>
    <g
       aria-label="*"
       id="text16"
       style="font-style:normal;font-variant:normal;font-weight:bold;font-stretch:normal;font-size:10.5833px;line-height:1.25;font-family:Carlito;-inkscape-font-specification:'Carlito Bold';word-spacing:0px;fill:#f57900;stroke-width:0.264583">
      <path
         d="m 69.221057,12.848751 v -0.899167 q 0,-0.103353 0.01033,-0.19637 0.0155,-0.09818 0.04651,-0.186035 -0.05684,0.07235 -0.134359,0.129191 -0.07235,0.05168 -0.160196,0.103353 l -0.775144,0.449583 -0.310058,-0.52193 0.775144,-0.454751 q 0.08785,-0.05168 0.180867,-0.08785 0.09302,-0.03617 0.186035,-0.05168 -0.19637,-0.03101 -0.366902,-0.144694 l -0.775144,-0.465086 0.310058,-0.516763 0.775144,0.454751 q 0.08785,0.05168 0.165364,0.10852 0.07752,0.05684 0.134358,0.129191 -0.03617,-0.08785 -0.05168,-0.180867 -0.01033,-0.09302 -0.01033,-0.19637 V 9.4174467 h 0.625283 v 0.8991673 q 0,0.103352 -0.0155,0.201537 -0.01033,0.09302 -0.04134,0.180867 0.05684,-0.07235 0.134358,-0.129191 0.07751,-0.05684 0.165364,-0.10852 l 0.769977,-0.449583 0.310057,0.52193 -0.769976,0.454751 q -0.09302,0.05168 -0.186035,0.09302 -0.08785,0.03617 -0.180867,0.05168 0.09302,0.0155 0.186035,0.05168 0.09302,0.03617 0.180867,0.08785 l 0.769976,0.465086 -0.30489,0.516763 -0.775144,-0.454751 q -0.191202,-0.103353 -0.310057,-0.237711 0.06718,0.165364 0.06718,0.377237 v 0.909502 z"
         style="font-style:normal;font-variant:normal;font-weight:bold;font-stretch:normal;font-family:Carlito;-inkscape-font-specification:'Carlito Bold';fill:#f57900;stroke-width:0.264583"
         id="path1411" />
    </g>
    <g
       aria-label="*"
       id="text20"
       style="font-size:10.5833px;line-height:1.25;font-family:Carlito;-inkscape-font-specification:Carlito;word-spacing:0px;fill:#f57900;stroke-width:0.264583">
      <path
         d="M 10.502458,12.659477 V 11.76031 q 0,-0.103353 0.01033,-0.19637 0.0155,-0.09819 0.04651,-0.186034 -0.05684,0.07235 -0.134358,0.12919 -0.07235,0.05168 -0.160196,0.103353 l -0.7751443,0.449583 -0.3100576,-0.52193 0.775144,-0.454751 q 0.08785,-0.05168 0.1808669,-0.08785 0.09302,-0.03617 0.186035,-0.05168 -0.19637,-0.03101 -0.3669019,-0.144694 L 9.1795451,10.334045 9.4896027,9.8172823 10.264747,10.272033 q 0.08785,0.05168 0.165364,0.108521 0.07751,0.05684 0.134358,0.12919 -0.03617,-0.08785 -0.05168,-0.180867 -0.01033,-0.09302 -0.01033,-0.196369 V 9.2281729 H 11.12774 V 10.12734 q 0,0.103352 -0.0155,0.201537 -0.01034,0.09302 -0.04134,0.180867 0.05684,-0.07235 0.134358,-0.12919 0.07751,-0.05684 0.165364,-0.108521 l 0.769976,-0.449583 0.310058,0.52193 -0.769977,0.454751 q -0.09302,0.05168 -0.186034,0.09302 -0.08785,0.03617 -0.180867,0.05168 0.09302,0.0155 0.186035,0.05168 0.09302,0.03617 0.180866,0.08785 l 0.769977,0.465086 -0.30489,0.516763 -0.775144,-0.454751 q -0.191202,-0.103353 -0.310058,-0.237711 0.06718,0.165364 0.06718,0.377237 v 0.909502 z"
         style="font-style:normal;font-variant:normal;font-weight:bold;font-stretch:normal;font-family:Carlito;-inkscape-font-specification:'Carlito Bold';fill:#f57900;stroke-width:0.264583"
         id="path1408" />
    </g>
    <g
       aria-label="SAINT-MAIXENT L'ÉCOLE"
       id="text24"
       style="font-size:10.5833px;line-height:1.25;font-family:Carlito;-inkscape-font-specification:Carlito;word-spacing:0px;fill:#f57900;stroke-width:0.264583">
      <path
         d="m 10.98257,19.626971 q -0.03101,0.06201 -0.07441,0.08992 -0.04031,0.0248 -0.10232,0.0248 -0.05891,0 -0.127124,-0.04341 -0.06821,-0.04341 -0.16123,-0.09302 -0.08992,-0.05271 -0.21084,-0.09612 -0.120923,-0.04341 -0.279053,-0.04341 -0.2790523,0 -0.4216793,0.136426 -0.1395264,0.136426 -0.1395264,0.356567 0,0.139527 0.074414,0.232544 0.077515,0.08992 0.2015381,0.15813 0.127124,0.06511 0.2852535,0.117822 0.161231,0.05271 0.328662,0.114722 0.167432,0.05891 0.325562,0.142627 0.16123,0.08061 0.285254,0.204639 0.127124,0.124023 0.201538,0.303857 0.07752,0.179834 0.07752,0.437183 0,0.279053 -0.09302,0.523999 -0.08992,0.244946 -0.26665,0.427881 -0.176734,0.179834 -0.434082,0.285254 -0.254248,0.10542 -0.5829105,0.10542 -0.1860351,0 -0.3720703,-0.04031 Q 9.3144546,22.935296 9.1439224,22.863982 8.9733902,22.792669 8.8214615,22.69345 8.6695328,22.594231 8.5548111,22.470208 l 0.2418457,-0.387573 q 0.027905,-0.04651 0.074414,-0.07441 0.049609,-0.02791 0.1054199,-0.02791 0.074414,0 0.1519287,0.05891 0.080615,0.05581 0.1860351,0.127124 0.10542,0.06821 0.2449463,0.127124 0.1395264,0.05581 0.3317627,0.05581 0.2790524,0 0.4340824,-0.142627 0.155029,-0.142627 0.155029,-0.421679 0,-0.15813 -0.07752,-0.257349 -0.07441,-0.09922 -0.198437,-0.164331 -0.124024,-0.06821 -0.2852541,-0.114722 -0.1581299,-0.04961 -0.3255615,-0.10542 -0.1643311,-0.05581 -0.3255616,-0.133325 -0.1581298,-0.08061 -0.2821533,-0.21084 -0.1240234,-0.130224 -0.201538,-0.322461 -0.074414,-0.192236 -0.074414,-0.47749 0,-0.226343 0.086816,-0.440283 0.086816,-0.217041 0.254248,-0.384473 0.1674317,-0.167431 0.4092774,-0.26665 0.2449463,-0.10232 0.5581058,-0.10232 0.353466,0 0.654223,0.114722 0.303858,0.114722 0.517798,0.322461 z"
         style="font-style:normal;font-variant:normal;font-weight:bold;font-stretch:normal;font-size:6.35px;font-family:Carlito;-inkscape-font-specification:'Carlito Bold';fill:#f57900;stroke-width:0.264583"
         id="path1367" />
      <path
         d="m 15.205568,22.969402 h -0.626319 q -0.10852,0 -0.173632,-0.04961 -0.06511,-0.05271 -0.09612,-0.130225 l -0.260449,-0.809253 h -1.516186 l -0.257349,0.806153 q -0.0248,0.06821 -0.09612,0.127124 -0.06821,0.05581 -0.170532,0.05581 h -0.63562 l 1.500683,-4.117578 h 0.830957 z m -2.489771,-1.559594 h 1.147217 l -0.418579,-1.302246 q -0.03721,-0.09612 -0.07752,-0.223243 -0.04031,-0.130224 -0.08061,-0.282153 -0.03721,0.151929 -0.07752,0.282153 -0.04031,0.130225 -0.07441,0.226343 z"
         style="font-style:normal;font-variant:normal;font-weight:bold;font-stretch:normal;font-size:6.35px;font-family:Carlito;-inkscape-font-specification:'Carlito Bold';fill:#f57900;stroke-width:0.264583"
         id="path1369" />
      <path
         d="m 16.464406,22.969402 h -0.818555 v -4.117578 h 0.818555 z"
         style="font-style:normal;font-variant:normal;font-weight:bold;font-stretch:normal;font-size:6.35px;font-family:Carlito;-inkscape-font-specification:'Carlito Bold';fill:#f57900;stroke-width:0.264583"
         id="path1371" />
      <path
         d="m 17.707741,18.851824 q 0.05271,0 0.08992,0.0062 0.03721,0.0031 0.06511,0.0186 0.03101,0.0124 0.05581,0.03721 0.02791,0.02481 0.06201,0.06511 l 2.027784,2.672705 q -0.0186,-0.204638 -0.0186,-0.387573 v -2.412256 h 0.716235 v 4.117578 h -0.418579 q -0.09612,0 -0.16123,-0.03101 -0.06201,-0.03411 -0.124024,-0.10852 l -2.021582,-2.657202 q 0.0186,0.192236 0.0186,0.356567 v 2.440161 H 17.27986 v -4.117578 h 0.427881 z"
         style="font-style:normal;font-variant:normal;font-weight:bold;font-stretch:normal;font-size:6.35px;font-family:Carlito;-inkscape-font-specification:'Carlito Bold';fill:#f57900;stroke-width:0.264583"
         id="path1373" />
      <path
         d="m 24.172462,18.851824 v 0.663526 h -1.11001 v 3.454052 H 22.250098 V 19.51535 h -1.110009 v -0.663526 z"
         style="font-style:normal;font-variant:normal;font-weight:bold;font-stretch:normal;font-size:6.35px;font-family:Carlito;-inkscape-font-specification:'Carlito Bold';fill:#f57900;stroke-width:0.264583"
         id="path1375" />
      <path
         d="m 23.983326,20.829998 h 1.565796 v 0.657324 h -1.565796 z"
         style="font-style:normal;font-variant:normal;font-weight:bold;font-stretch:normal;font-size:6.35px;font-family:Carlito;-inkscape-font-specification:'Carlito Bold';fill:#f57900;stroke-width:0.264583"
         id="path1377" />
      <path
         d="m 28.336549,21.21137 q 0.10542,0.195337 0.182935,0.406177 0.04341,-0.108521 0.08682,-0.21084 0.04341,-0.10542 0.09612,-0.201538 l 1.26814,-2.226221 q 0.02481,-0.04651 0.04961,-0.07131 0.02791,-0.02791 0.05891,-0.03721 0.03101,-0.0124 0.07131,-0.0155 0.04031,-0.0031 0.09302,-0.0031 h 0.613916 v 4.117578 H 30.14109 v -2.576587 q 0,-0.08371 0.0031,-0.179834 0.0062,-0.09922 0.0155,-0.201538 l -1.299146,2.300635 q -0.09612,0.179834 -0.282153,0.179834 h -0.114722 q -0.189135,0 -0.285254,-0.179834 l -1.314648,-2.313037 q 0.0124,0.10542 0.0186,0.207739 0.0062,0.09922 0.0062,0.186035 v 2.576587 H 26.16924 v -4.117578 h 0.617016 q 0.05271,0 0.08992,0.0031 0.04031,0.0031 0.07131,0.0155 0.03411,0.0124 0.05891,0.03721 0.02791,0.0248 0.05271,0.07131 l 1.277441,2.232422 z"
         style="font-style:normal;font-variant:normal;font-weight:bold;font-stretch:normal;font-size:6.35px;font-family:Carlito;-inkscape-font-specification:'Carlito Bold';fill:#f57900;stroke-width:0.264583"
         id="path1379" />
      <path
         d="m 35.133034,22.969402 h -0.626319 q -0.10852,0 -0.173632,-0.04961 -0.06511,-0.05271 -0.09612,-0.130225 l -0.260449,-0.809253 h -1.516186 l -0.257349,0.806153 q -0.0248,0.06821 -0.09612,0.127124 -0.06821,0.05581 -0.170532,0.05581 h -0.63562 l 1.500683,-4.117578 h 0.830957 z m -2.489771,-1.559594 h 1.147217 l -0.418579,-1.302246 q -0.03721,-0.09612 -0.07751,-0.223243 -0.04031,-0.130224 -0.08062,-0.282153 -0.03721,0.151929 -0.07751,0.282153 -0.04031,0.130225 -0.07441,0.226343 z"
         style="font-style:normal;font-variant:normal;font-weight:bold;font-stretch:normal;font-size:6.35px;font-family:Carlito;-inkscape-font-specification:'Carlito Bold';fill:#f57900;stroke-width:0.264583"
         id="path1381" />
      <path
         d="M 36.39187,22.969402 H 35.573316 V 18.851824 H 36.39187 Z"
         style="font-style:normal;font-variant:normal;font-weight:bold;font-stretch:normal;font-size:6.35px;font-family:Carlito;-inkscape-font-specification:'Carlito Bold';fill:#f57900;stroke-width:0.264583"
         id="path1383" />
      <path
         d="m 38.02588,20.851702 -1.131714,-1.999878 h 0.818555 q 0.08061,0 0.114722,0.0217 0.03721,0.0186 0.06821,0.06821 l 0.744141,1.42937 0.04961,-0.08992 0.651123,-1.32395 q 0.03411,-0.05271 0.07131,-0.07751 0.03721,-0.02791 0.08992,-0.02791 h 0.778247 l -1.144116,1.962671 1.168921,2.154907 h -0.809253 q -0.08372,0 -0.133325,-0.04031 -0.04651,-0.04341 -0.08062,-0.09612 l -0.747241,-1.485181 q -0.0062,0.0155 -0.0155,0.03101 -0.0093,0.0124 -0.0155,0.02791 l -0.694531,1.423169 q -0.03411,0.05271 -0.07751,0.09612 -0.04341,0.04341 -0.114721,0.04341 h -0.765845 z"
         style="font-style:normal;font-variant:normal;font-weight:bold;font-stretch:normal;font-size:6.35px;font-family:Carlito;-inkscape-font-specification:'Carlito Bold';fill:#f57900;stroke-width:0.264583"
         id="path1385" />
      <path
         d="m 43.203859,18.851824 v 0.648023 h -1.69292 v 1.088305 h 1.317749 v 0.623218 h -1.317749 v 1.11001 h 1.69602 l -0.0031,0.648022 h -2.511475 v -4.117578 z"
         style="font-style:normal;font-variant:normal;font-weight:bold;font-stretch:normal;font-size:6.35px;font-family:Carlito;-inkscape-font-specification:'Carlito Bold';fill:#f57900;stroke-width:0.264583"
         id="path1387" />
      <path
         d="m 44.230152,18.851824 q 0.05271,0 0.08992,0.0062 0.03721,0.0031 0.06511,0.0186 0.03101,0.0124 0.05581,0.03721 0.0279,0.02481 0.06201,0.06511 l 2.027783,2.672705 q -0.0186,-0.204638 -0.0186,-0.387573 v -2.412256 h 0.716236 v 4.117578 H 46.80984 q -0.09612,0 -0.161231,-0.03101 -0.06201,-0.03411 -0.124023,-0.10852 l -2.021582,-2.657202 q 0.0186,0.192236 0.0186,0.356567 v 2.440161 h -0.719336 v -4.117578 h 0.427881 z"
         style="font-style:normal;font-variant:normal;font-weight:bold;font-stretch:normal;font-size:6.35px;font-family:Carlito;-inkscape-font-specification:'Carlito Bold';fill:#f57900;stroke-width:0.264583"
         id="path1389" />
      <path
         d="m 50.694873,18.851824 v 0.663526 h -1.11001 v 3.454052 H 48.77251 V 19.51535 H 47.6625 v -0.663526 z"
         style="font-style:normal;font-variant:normal;font-weight:bold;font-stretch:normal;font-size:6.35px;font-family:Carlito;-inkscape-font-specification:'Carlito Bold';fill:#f57900;stroke-width:0.264583"
         id="path1391" />
      <path
         d="m 53.336574,22.299676 h 1.42937 v 0.669726 H 52.52112 v -4.117578 h 0.815454 z"
         style="font-style:normal;font-variant:normal;font-weight:bold;font-stretch:normal;font-size:6.35px;font-family:Carlito;-inkscape-font-specification:'Carlito Bold';fill:#f57900;stroke-width:0.264583"
         id="path1393" />
      <path
         d="m 55.252736,18.634783 v 0.858863 l -0.07131,0.468188 q -0.0186,0.139526 -0.07751,0.21394 -0.05891,0.07441 -0.195337,0.07441 -0.117822,0 -0.179834,-0.07441 -0.06201,-0.07441 -0.08372,-0.21394 l -0.07441,-0.468188 v -0.858863 z"
         style="font-style:normal;font-variant:normal;font-weight:bold;font-stretch:normal;font-size:6.35px;font-family:Carlito;-inkscape-font-specification:'Carlito Bold';fill:#f57900;stroke-width:0.264583"
         id="path1395" />
      <path
         d="m 56.018579,22.969402 z m 2.511475,-4.117578 v 0.648023 h -1.69292 v 1.088305 h 1.317749 v 0.623218 h -1.317749 v 1.11001 h 1.69602 l -0.0031,0.648022 h -2.511475 v -4.117578 z m 0.05271,-1.215429 -0.970484,0.858862 q -0.06201,0.05271 -0.117822,0.06821 -0.05581,0.0124 -0.145728,0.0124 h -0.570507 l 0.610815,-0.812353 q 0.03101,-0.04341 0.06201,-0.06821 0.03101,-0.0248 0.06821,-0.03721 0.03721,-0.0155 0.08061,-0.0186 0.04651,-0.0031 0.10852,-0.0031 z"
         style="font-style:normal;font-variant:normal;font-weight:bold;font-stretch:normal;font-size:6.35px;font-family:Carlito;-inkscape-font-specification:'Carlito Bold';fill:#f57900;stroke-width:0.264583"
         id="path1397" />
      <path
         d="m 61.515917,21.971014 q 0.06511,0 0.111621,0.04961 l 0.325562,0.350366 q -0.223242,0.313159 -0.561206,0.47749 -0.334864,0.164332 -0.796851,0.164332 -0.418579,0 -0.753442,-0.15503 -0.334863,-0.15813 -0.570508,-0.437182 -0.232544,-0.282154 -0.359668,-0.666626 -0.124023,-0.387574 -0.124023,-0.84646 0,-0.461988 0.133325,-0.84646 0.136426,-0.387573 0.381372,-0.666626 0.244946,-0.279053 0.586011,-0.434082 0.341064,-0.15503 0.750341,-0.15503 0.415479,0 0.734839,0.148829 0.319361,0.145727 0.533301,0.387573 l -0.272852,0.381372 q -0.0279,0.03411 -0.06511,0.06201 -0.03411,0.02791 -0.09922,0.02791 -0.06511,0 -0.127124,-0.04961 -0.05891,-0.04961 -0.148828,-0.108521 -0.08682,-0.05891 -0.220141,-0.108521 -0.133326,-0.04961 -0.341065,-0.04961 -0.226343,0 -0.412378,0.09612 -0.186035,0.09302 -0.31936,0.275952 -0.133325,0.179834 -0.207739,0.443384 -0.07131,0.260449 -0.07131,0.595313 0,0.337964 0.08062,0.601513 0.08062,0.26355 0.217041,0.446485 0.139527,0.179834 0.325562,0.275952 0.186035,0.09302 0.399976,0.09302 0.127124,0 0.229443,-0.0124 0.102319,-0.0155 0.189136,-0.04961 0.08992,-0.03721 0.167431,-0.09302 0.07751,-0.05581 0.15503,-0.139526 0.031,-0.0248 0.06201,-0.04031 0.03411,-0.0186 0.06821,-0.0186 z"
         style="font-style:normal;font-variant:normal;font-weight:bold;font-stretch:normal;font-size:6.35px;font-family:Carlito;-inkscape-font-specification:'Carlito Bold';fill:#f57900;stroke-width:0.264583"
         id="path1399" />
      <path
         d="m 66.12029,20.907513 q 0,0.452685 -0.142627,0.840258 -0.142627,0.384473 -0.406176,0.666626 -0.26045,0.282154 -0.629419,0.440284 -0.36897,0.15813 -0.818555,0.15813 -0.449585,0 -0.818555,-0.15813 -0.368969,-0.15813 -0.632519,-0.440284 -0.26355,-0.282153 -0.409278,-0.666626 -0.142626,-0.387573 -0.142626,-0.840258 0,-0.449585 0.142626,-0.834058 0.145728,-0.387573 0.409278,-0.666626 0.26355,-0.282153 0.632519,-0.440283 0.36897,-0.161231 0.818555,-0.161231 0.449585,0 0.818555,0.161231 0.368969,0.15813 0.629419,0.440283 0.263549,0.282153 0.406176,0.666626 0.142627,0.384473 0.142627,0.834058 z m -0.830957,0 q 0,-0.328662 -0.08061,-0.589112 -0.08062,-0.260449 -0.232544,-0.443383 -0.148828,-0.182935 -0.365869,-0.279053 -0.21394,-0.09922 -0.486792,-0.09922 -0.272852,0 -0.489893,0.09922 -0.217041,0.09612 -0.368969,0.279053 -0.148828,0.182934 -0.229444,0.443383 -0.08062,0.26045 -0.08062,0.589112 0,0.331762 0.08062,0.595312 0.08062,0.260449 0.229444,0.443384 0.151928,0.179834 0.368969,0.275952 0.217041,0.09612 0.489893,0.09612 0.272852,0 0.486792,-0.09612 0.217041,-0.09612 0.365869,-0.275952 0.151929,-0.182935 0.232544,-0.443384 0.08061,-0.26355 0.08061,-0.595312 z"
         style="font-style:normal;font-variant:normal;font-weight:bold;font-stretch:normal;font-size:6.35px;font-family:Carlito;-inkscape-font-specification:'Carlito Bold';fill:#f57900;stroke-width:0.264583"
         id="path1401" />
      <path
         d="m 67.416335,22.299676 h 1.42937 v 0.669726 h -2.244824 v -4.117578 h 0.815454 z"
         style="font-style:normal;font-variant:normal;font-weight:bold;font-stretch:normal;font-size:6.35px;font-family:Carlito;-inkscape-font-specification:'Carlito Bold';fill:#f57900;stroke-width:0.264583"
         id="path1403" />
      <path
         d="m 71.828466,18.851824 v 0.648023 h -1.69292 v 1.088305 h 1.317749 v 0.623218 h -1.317749 v 1.11001 h 1.696021 l -0.0031,0.648022 h -2.511475 v -4.117578 z"
         style="font-style:normal;font-variant:normal;font-weight:bold;font-stretch:normal;font-size:6.35px;font-family:Carlito;-inkscape-font-specification:'Carlito Bold';fill:#f57900;stroke-width:0.264583"
         id="path1405" />
    </g>
    <g
       aria-label="du 9 au 12 avril 2021"
       id="text28"
       style="font-size:10.5833px;line-height:1.25;font-family:Carlito;-inkscape-font-specification:Carlito;word-spacing:0px;fill:#f57900;stroke-width:0.264583">
      <path
         d="m 12.294045,33.550327 q -0.07131,0 -0.124023,-0.03411 -0.04961,-0.03721 -0.06511,-0.108521 l -0.06821,-0.275952 q -0.182934,0.207739 -0.418579,0.337964 -0.235644,0.127124 -0.551904,0.127124 -0.244946,0 -0.449585,-0.10542 -0.204639,-0.10542 -0.353467,-0.306958 -0.145727,-0.201538 -0.229443,-0.492993 -0.080615,-0.294556 -0.080615,-0.672827 0,-0.344165 0.093017,-0.63562 0.09302,-0.294556 0.26355,-0.508496 0.170532,-0.217041 0.409277,-0.337964 0.241846,-0.124024 0.536402,-0.124024 0.248047,0 0.421679,0.07751 0.176734,0.07441 0.31626,0.207739 v -1.603003 h 0.787549 v 4.455542 z m -0.95188,-0.576709 q 0.108521,0 0.198438,-0.0217 0.09302,-0.0248 0.170532,-0.06821 0.07752,-0.04341 0.145727,-0.10542 0.07131,-0.06511 0.136426,-0.148828 v -1.358056 q -0.117822,-0.148828 -0.257348,-0.204639 -0.136426,-0.05891 -0.294556,-0.05891 -0.151929,0 -0.279053,0.06201 -0.124023,0.05891 -0.21394,0.182934 -0.08682,0.124024 -0.136426,0.31626 -0.04651,0.189136 -0.04651,0.449585 0,0.26355 0.04031,0.446484 0.04031,0.179834 0.114721,0.294556 0.07442,0.111621 0.179834,0.164331 0.108521,0.04961 0.241846,0.04961 z"
         style="font-style:normal;font-variant:normal;font-weight:bold;font-stretch:normal;font-size:6.35px;font-family:Carlito;-inkscape-font-specification:'Carlito Bold';fill:#f57900;stroke-width:0.264583"
         id="path1334" />
      <path
         d="m 14.284621,30.471446 v 1.956469 q 0,0.266651 0.120923,0.412378 0.120923,0.145728 0.362769,0.145728 0.176733,0 0.334863,-0.07751 0.15813,-0.08062 0.297656,-0.217041 v -2.220019 h 0.787549 v 3.078881 H 15.70469 q -0.07442,0 -0.127125,-0.03411 -0.04961,-0.03721 -0.06511,-0.108521 l -0.05581,-0.223242 q -0.182935,0.182935 -0.406177,0.297656 -0.220142,0.114722 -0.523999,0.114722 -0.251148,0 -0.443384,-0.08682 -0.192236,-0.08682 -0.322461,-0.241846 -0.130224,-0.155029 -0.198437,-0.36897 -0.06511,-0.21394 -0.06511,-0.471289 v -1.956469 z"
         style="font-style:normal;font-variant:normal;font-weight:bold;font-stretch:normal;font-size:6.35px;font-family:Carlito;-inkscape-font-specification:'Carlito Bold';fill:#f57900;stroke-width:0.264583"
         id="path1336" />
      <path
         d="m 18.467312,33.550327 z m 2.104265,-2.116667 q 0.05788,-0.07441 0.111621,-0.144694 0.05374,-0.07028 0.103353,-0.14056 -0.177767,0.107487 -0.392741,0.165364 -0.21084,0.05788 -0.446485,0.05788 -0.272851,0 -0.537435,-0.09922 -0.264583,-0.09922 -0.475423,-0.293522 -0.21084,-0.198438 -0.338998,-0.49196 -0.128157,-0.297656 -0.128157,-0.694531 0,-0.367937 0.132291,-0.694532 0.132292,-0.326595 0.376205,-0.570508 0.243913,-0.243913 0.58291,-0.384473 0.338998,-0.144694 0.756544,-0.144694 0.417545,0 0.752409,0.136426 0.334863,0.132292 0.566374,0.372071 0.235644,0.239778 0.359668,0.574642 0.124023,0.334863 0.124023,0.735872 0,0.26045 -0.04134,0.49196 -0.04134,0.231511 -0.119889,0.446485 -0.07855,0.21084 -0.19017,0.413411 -0.107487,0.198438 -0.243912,0.396876 l -1.198894,1.756999 q -0.07028,0.09508 -0.206706,0.16123 -0.136426,0.06615 -0.310059,0.06615 H 18.89726 Z m 0.595313,-1.711524 q 0,-0.219108 -0.06615,-0.388607 -0.06201,-0.169499 -0.177767,-0.285254 -0.115756,-0.11989 -0.272852,-0.177767 -0.157096,-0.06201 -0.347266,-0.06201 -0.194303,0 -0.3514,0.07028 -0.152962,0.06615 -0.264583,0.190169 -0.107487,0.11989 -0.169499,0.285254 -0.05788,0.165365 -0.05788,0.359668 0,0.446485 0.214974,0.68213 0.214974,0.23151 0.624251,0.23151 0.21084,0 0.372071,-0.06615 0.16123,-0.07028 0.268717,-0.190169 0.111621,-0.124024 0.169499,-0.289388 0.05788,-0.165365 0.05788,-0.359668 z"
         style="font-size:8.46667px;fill:#f57900"
         id="path1338" />
      <path
         d="m 26.181571,33.550327 q -0.111621,0 -0.170532,-0.03101 -0.05891,-0.03411 -0.09302,-0.133325 l -0.06821,-0.204638 q -0.117822,0.102319 -0.226343,0.179834 -0.10852,0.07751 -0.226342,0.130224 -0.114722,0.05271 -0.248047,0.07751 -0.130225,0.02791 -0.291455,0.02791 -0.198438,0 -0.362769,-0.05271 -0.164331,-0.05581 -0.285254,-0.16123 -0.117822,-0.10542 -0.182934,-0.26045 -0.06511,-0.158129 -0.06511,-0.362768 0,-0.170532 0.08682,-0.341065 0.08682,-0.170532 0.294555,-0.306958 0.21084,-0.139526 0.558106,-0.229443 0.350366,-0.09302 0.871264,-0.10542 v -0.164331 q 0,-0.297656 -0.124023,-0.437182 -0.124023,-0.139527 -0.356567,-0.139527 -0.173633,0 -0.288355,0.04031 -0.111621,0.04031 -0.198437,0.08992 -0.08682,0.04651 -0.161231,0.08682 -0.07441,0.04031 -0.167431,0.04031 -0.08062,0 -0.139527,-0.04031 -0.05581,-0.04341 -0.08992,-0.102319 l -0.142627,-0.248047 q 0.266651,-0.248047 0.589112,-0.36897 0.32246,-0.120923 0.697631,-0.120923 0.269751,0 0.483692,0.08992 0.21394,0.08682 0.362768,0.248047 0.148828,0.15813 0.226343,0.378272 0.07752,0.220141 0.07752,0.483691 v 1.937866 z m -1.079004,-0.489892 q 0.21084,0 0.362768,-0.07441 0.15503,-0.07751 0.306958,-0.235645 v -0.496094 q -0.306958,0.0124 -0.511596,0.05271 -0.201538,0.03721 -0.322461,0.09922 -0.120923,0.05891 -0.173633,0.139526 -0.04961,0.08062 -0.04961,0.173633 0,0.186035 0.102319,0.26355 0.10542,0.07751 0.285254,0.07751 z"
         style="font-style:normal;font-variant:normal;font-weight:bold;font-stretch:normal;font-size:6.35px;font-family:Carlito;-inkscape-font-specification:'Carlito Bold';fill:#f57900;stroke-width:0.264583"
         id="path1340" />
      <path
         d="m 27.989212,30.471446 v 1.956469 q 0,0.266651 0.120923,0.412378 0.120923,0.145728 0.362769,0.145728 0.176733,0 0.334863,-0.07751 0.15813,-0.08062 0.297656,-0.217041 v -2.220019 h 0.787549 v 3.078881 h -0.483691 q -0.07441,0 -0.127124,-0.03411 -0.04961,-0.03721 -0.06511,-0.108521 l -0.05581,-0.223242 q -0.182935,0.182935 -0.406177,0.297656 -0.220142,0.114722 -0.523999,0.114722 -0.251148,0 -0.443384,-0.08682 -0.192236,-0.08682 -0.322461,-0.241846 -0.130224,-0.155029 -0.198437,-0.36897 -0.06511,-0.21394 -0.06511,-0.471289 v -1.956469 z"
         style="font-style:normal;font-variant:normal;font-weight:bold;font-stretch:normal;font-size:6.35px;font-family:Carlito;-inkscape-font-specification:'Carlito Bold';fill:#f57900;stroke-width:0.264583"
         id="path1342" />
      <path
         d="m 32.688667,32.806186 h 1.062468 v -3.075782 q 0,-0.190169 0.0124,-0.396875 l -0.715202,0.615983 q -0.07028,0.05788 -0.14056,0.07028 -0.07028,0.0124 -0.132292,0 -0.06201,-0.0124 -0.111621,-0.04134 -0.04548,-0.03307 -0.07028,-0.06615 l -0.314193,-0.429948 1.649513,-1.430404 h 0.818555 v 4.754233 h 0.938444 v 0.744141 h -2.997234 z"
         style="font-size:8.46667px;fill:#f57900"
         id="path1344" />
      <path
         d="m 36.289484,33.550327 z m 1.9389,-5.552118 q 0.380339,0 0.690397,0.115755 0.314193,0.111622 0.533301,0.318327 0.223243,0.206706 0.343132,0.500228 0.124024,0.289389 0.124024,0.640788 0,0.301791 -0.08682,0.56224 -0.08682,0.256316 -0.23151,0.49196 -0.144694,0.231511 -0.338998,0.454753 -0.194303,0.219108 -0.409277,0.44235 l -1.165821,1.219565 q 0.186035,-0.05788 0.37207,-0.08682 0.186036,-0.03307 0.347266,-0.03307 h 1.244369 q 0.157096,0 0.252181,0.09095 0.09922,0.09095 0.09922,0.239779 v 0.595312 h -3.712436 v -0.334863 q 0,-0.09508 0.03721,-0.202572 0.04134,-0.111621 0.14056,-0.206706 l 1.595768,-1.641244 q 0.202572,-0.21084 0.355534,-0.401009 0.157097,-0.190169 0.26045,-0.376205 0.107487,-0.190169 0.16123,-0.380338 0.05374,-0.194304 0.05374,-0.405144 0,-0.380338 -0.19017,-0.574642 -0.190169,-0.194303 -0.537435,-0.194303 -0.148828,0 -0.272851,0.04547 -0.124024,0.04548 -0.223243,0.124023 -0.09922,0.07855 -0.169498,0.186036 -0.07028,0.107487 -0.107487,0.23151 -0.06615,0.19017 -0.181902,0.248047 -0.111621,0.05788 -0.310058,0.02481 l -0.529167,-0.09095 q 0.06201,-0.401009 0.223242,-0.698665 0.161231,-0.301791 0.401009,-0.500228 0.243913,-0.202572 0.558106,-0.301791 0.314193,-0.103353 0.673861,-0.103353 z"
         style="font-size:8.46667px;fill:#f57900"
         id="path1346" />
      <path
         d="m 44.177376,33.550327 q -0.111622,0 -0.170533,-0.03101 -0.05891,-0.03411 -0.09302,-0.133325 l -0.06821,-0.204638 q -0.117822,0.102319 -0.226343,0.179834 -0.10852,0.07751 -0.226343,0.130224 -0.114721,0.05271 -0.248047,0.07751 -0.130224,0.02791 -0.291455,0.02791 -0.198437,0 -0.362768,-0.05271 -0.164331,-0.05581 -0.285254,-0.16123 -0.117822,-0.10542 -0.182935,-0.26045 -0.06511,-0.158129 -0.06511,-0.362768 0,-0.170532 0.08682,-0.341065 0.08682,-0.170532 0.294556,-0.306958 0.21084,-0.139526 0.558106,-0.229443 0.350366,-0.09302 0.871264,-0.10542 v -0.164331 q 0,-0.297656 -0.124023,-0.437182 -0.124024,-0.139527 -0.356568,-0.139527 -0.173632,0 -0.288354,0.04031 -0.111621,0.04031 -0.198438,0.08992 -0.08682,0.04651 -0.16123,0.08682 -0.07441,0.04031 -0.167432,0.04031 -0.08062,0 -0.139526,-0.04031 -0.05581,-0.04341 -0.08992,-0.102319 l -0.142627,-0.248047 q 0.26665,-0.248047 0.589111,-0.36897 0.322461,-0.120923 0.697632,-0.120923 0.269751,0 0.483692,0.08992 0.21394,0.08682 0.362768,0.248047 0.148828,0.15813 0.226343,0.378272 0.07751,0.220141 0.07751,0.483691 v 1.937866 z m -1.079004,-0.489892 q 0.21084,0 0.362768,-0.07441 0.15503,-0.07751 0.306958,-0.235645 v -0.496094 q -0.306958,0.0124 -0.511596,0.05271 -0.201539,0.03721 -0.322461,0.09922 -0.120923,0.05891 -0.173633,0.139526 -0.04961,0.08062 -0.04961,0.173633 0,0.186035 0.10232,0.26355 0.10542,0.07751 0.285254,0.07751 z"
         style="font-style:normal;font-variant:normal;font-weight:bold;font-stretch:normal;font-size:6.35px;font-family:Carlito;-inkscape-font-specification:'Carlito Bold';fill:#f57900;stroke-width:0.264583"
         id="path1348" />
      <path
         d="m 46.636138,33.550327 h -0.716235 l -1.11001,-3.078881 h 0.651123 q 0.08682,0 0.142627,0.04341 0.05891,0.04031 0.08062,0.09922 l 0.449585,1.571998 q 0.09612,0.285253 0.151929,0.573608 0.03101,-0.142627 0.06821,-0.282153 0.04031,-0.142627 0.09302,-0.291455 l 0.465088,-1.571998 q 0.0217,-0.06201 0.07751,-0.102319 0.05581,-0.04031 0.133325,-0.04031 h 0.623218 z"
         style="font-style:normal;font-variant:normal;font-weight:bold;font-stretch:normal;font-size:6.35px;font-family:Carlito;-inkscape-font-specification:'Carlito Bold';fill:#f57900;stroke-width:0.264583"
         id="path1350" />
      <path
         d="m 48.121322,33.550327 v -3.078881 h 0.461987 q 0.120923,0 0.167432,0.04341 0.04961,0.04341 0.06511,0.151928 l 0.04031,0.31316 q 0.139526,-0.26355 0.325561,-0.415479 0.186035,-0.151929 0.430981,-0.151929 0.201539,0 0.331763,0.09612 l -0.05891,0.589111 q -0.0062,0.05581 -0.03721,0.08061 -0.03101,0.0217 -0.08372,0.0217 -0.04651,0 -0.133325,-0.0124 -0.08682,-0.0155 -0.16123,-0.0155 -0.108521,0 -0.195337,0.03101 -0.08372,0.03101 -0.151929,0.09302 -0.06511,0.05891 -0.117822,0.145728 -0.05271,0.08682 -0.09612,0.198437 v 1.909961 z"
         style="font-style:normal;font-variant:normal;font-weight:bold;font-stretch:normal;font-size:6.35px;font-family:Carlito;-inkscape-font-specification:'Carlito Bold';fill:#f57900;stroke-width:0.264583"
         id="path1352" />
      <path
         d="m 50.316535,33.550327 z m 0.896069,-3.078881 v 3.078881 h -0.787549 v -3.078881 z m 0.09612,-0.883667 q 0,0.102319 -0.04031,0.192236 -0.04031,0.08682 -0.108521,0.155029 -0.06821,0.06511 -0.16123,0.10542 -0.09302,0.03721 -0.195337,0.03721 -0.09922,0 -0.189136,-0.03721 -0.08682,-0.04031 -0.155029,-0.10542 -0.06511,-0.06821 -0.10542,-0.155029 -0.03721,-0.08992 -0.03721,-0.192236 0,-0.10232 0.03721,-0.192237 0.04031,-0.08992 0.10542,-0.155029 0.06821,-0.06821 0.155029,-0.10542 0.08992,-0.04031 0.189136,-0.04031 0.102319,0 0.195337,0.04031 0.09302,0.03721 0.16123,0.10542 0.06821,0.06511 0.108521,0.155029 0.04031,0.08992 0.04031,0.192237 z"
         style="font-style:normal;font-variant:normal;font-weight:bold;font-stretch:normal;font-size:6.35px;font-family:Carlito;-inkscape-font-specification:'Carlito Bold';fill:#f57900;stroke-width:0.264583"
         id="path1354" />
      <path
         d="m 52.772198,29.094785 v 4.455542 h -0.787549 v -4.455542 z"
         style="font-style:normal;font-variant:normal;font-weight:bold;font-stretch:normal;font-size:6.35px;font-family:Carlito;-inkscape-font-specification:'Carlito Bold';fill:#f57900;stroke-width:0.264583"
         id="path1356" />
      <path
         d="m 54.877496,33.550327 z m 1.938901,-5.552118 q 0.380338,0 0.690397,0.115755 0.314193,0.111622 0.533301,0.318327 0.223242,0.206706 0.343132,0.500228 0.124023,0.289389 0.124023,0.640788 0,0.301791 -0.08682,0.56224 -0.08682,0.256316 -0.231511,0.49196 -0.144694,0.231511 -0.338997,0.454753 -0.194304,0.219108 -0.409278,0.44235 l -1.16582,1.219565 q 0.186035,-0.05788 0.37207,-0.08682 0.186035,-0.03307 0.347266,-0.03307 h 1.244369 q 0.157096,0 0.252181,0.09095 0.09922,0.09095 0.09922,0.239779 v 0.595312 h -3.712437 v -0.334863 q 0,-0.09508 0.03721,-0.202572 0.04134,-0.111621 0.14056,-0.206706 l 1.595769,-1.641244 q 0.202572,-0.21084 0.355534,-0.401009 0.157097,-0.190169 0.260449,-0.376205 0.107487,-0.190169 0.161231,-0.380338 0.05374,-0.194304 0.05374,-0.405144 0,-0.380338 -0.190169,-0.574642 -0.190169,-0.194303 -0.537435,-0.194303 -0.148828,0 -0.272852,0.04547 -0.124023,0.04548 -0.223242,0.124023 -0.09922,0.07855 -0.169499,0.186036 -0.07028,0.107487 -0.107487,0.23151 -0.06615,0.19017 -0.181901,0.248047 -0.111621,0.05788 -0.310059,0.02481 l -0.529166,-0.09095 q 0.06201,-0.401009 0.223242,-0.698665 0.16123,-0.301791 0.401009,-0.500228 0.243913,-0.202572 0.558106,-0.301791 0.314193,-0.103353 0.673861,-0.103353 z"
         style="font-size:8.46667px;fill:#f57900"
         id="path1358" />
      <path
         d="m 63.001036,30.80114 q 0,0.719336 -0.152962,1.248503 -0.148828,0.529167 -0.417546,0.876433 -0.264583,0.347266 -0.628386,0.516764 -0.359668,0.165365 -0.781348,0.165365 -0.42168,0 -0.781348,-0.165365 -0.355534,-0.169498 -0.620117,-0.516764 -0.264584,-0.347266 -0.413412,-0.876433 -0.148828,-0.529167 -0.148828,-1.248503 0,-0.719336 0.148828,-1.244369 0.148828,-0.529167 0.413412,-0.872299 0.264583,-0.347265 0.620117,-0.516764 0.359668,-0.169499 0.781348,-0.169499 0.42168,0 0.781348,0.169499 0.363803,0.169499 0.628386,0.516764 0.268718,0.343132 0.417546,0.872299 0.152962,0.525033 0.152962,1.244369 z m -1.029395,0 q 0,-0.587044 -0.08268,-0.967383 -0.07855,-0.384473 -0.21084,-0.607715 -0.132292,-0.227377 -0.305925,-0.314193 -0.169499,-0.09095 -0.3514,-0.09095 -0.181901,0 -0.3514,0.09095 -0.165364,0.08682 -0.297656,0.314193 -0.128158,0.223242 -0.206706,0.607715 -0.07855,0.380339 -0.07855,0.967383 0,0.591179 0.07855,0.975651 0.07855,0.380339 0.206706,0.607716 0.132292,0.223242 0.297656,0.314192 0.169499,0.08682 0.3514,0.08682 0.181901,0 0.3514,-0.08682 0.173633,-0.09095 0.305925,-0.314192 0.132292,-0.227377 0.21084,-0.607716 0.08268,-0.384472 0.08268,-0.975651 z"
         style="font-size:8.46667px;fill:#f57900"
         id="path1360" />
      <path
         d="m 63.45992,33.550327 z m 1.938901,-5.552118 q 0.380339,0 0.690397,0.115755 0.314193,0.111622 0.533301,0.318327 0.223243,0.206706 0.343132,0.500228 0.124023,0.289389 0.124023,0.640788 0,0.301791 -0.08682,0.56224 -0.08682,0.256316 -0.23151,0.49196 -0.144695,0.231511 -0.338998,0.454753 -0.194303,0.219108 -0.409278,0.44235 l -1.16582,1.219565 q 0.186035,-0.05788 0.37207,-0.08682 0.186035,-0.03307 0.347266,-0.03307 h 1.244369 q 0.157096,0 0.252181,0.09095 0.09922,0.09095 0.09922,0.239779 v 0.595312 H 63.45992 v -0.334863 q 0,-0.09508 0.03721,-0.202572 0.04134,-0.111621 0.14056,-0.206706 l 1.595769,-1.641244 q 0.202572,-0.21084 0.355534,-0.401009 0.157097,-0.190169 0.26045,-0.376205 0.107487,-0.190169 0.16123,-0.380338 0.05374,-0.194304 0.05374,-0.405144 0,-0.380338 -0.19017,-0.574642 -0.190169,-0.194303 -0.537435,-0.194303 -0.148828,0 -0.272851,0.04547 -0.124024,0.04548 -0.223243,0.124023 -0.09922,0.07855 -0.169499,0.186036 -0.07028,0.107487 -0.107487,0.23151 -0.06614,0.19017 -0.181901,0.248047 -0.111621,0.05788 -0.310058,0.02481 l -0.529167,-0.09095 q 0.06201,-0.401009 0.223242,-0.698665 0.161231,-0.301791 0.401009,-0.500228 0.243913,-0.202572 0.558106,-0.301791 0.314193,-0.103353 0.673861,-0.103353 z"
         style="font-size:8.46667px;fill:#f57900"
         id="path1362" />
      <path
         d="M 68.441532,32.806186 H 69.504 v -3.075782 q 0,-0.190169 0.0124,-0.396875 L 68.8012,29.949512 q -0.07028,0.05788 -0.14056,0.07028 -0.07028,0.0124 -0.132292,0 -0.06201,-0.0124 -0.111621,-0.04134 -0.04547,-0.03307 -0.07028,-0.06615 l -0.314193,-0.429948 1.649513,-1.430404 h 0.818555 v 4.754233 h 0.938444 v 0.744141 h -2.997234 z"
         style="font-size:8.46667px;fill:#f57900"
         id="path1364" />
    </g>
    <path
       id="rect44"
       style="fill:none;stroke:#f57900;stroke-width:2.64583334;stroke-miterlimit:4;stroke-dasharray:none;stroke-opacity:1;stroke-linejoin:round"
       d="M 5.9532218,2.5318537 H 76.466489 V 39.768464 H 5.9532218 Z" />
  </g>
</svg>
